<svg xmlns="http://www.w3.org/2000/svg" width="302" height="277" viewBox="0 0 302 277"><g transform="translate(-5467 -2049)"><g transform="translate(5596 2049)" fill="#fff" stroke="#384e66" stroke-width="8"><circle cx="20" cy="20" r="20" stroke="none"/><circle cx="20" cy="20" r="16" fill="none"/></g><g transform="translate(5646 2077)" fill="#fff" stroke="#384e66" stroke-width="8"><circle cx="20" cy="20" r="20" stroke="none"/><circle cx="20" cy="20" r="16" fill="none"/></g><g transform="translate(5647 2133)" fill="#fff" stroke="#384e66" stroke-width="8"><circle cx="20" cy="20" r="20" stroke="none"/><circle cx="20" cy="20" r="16" fill="none"/></g><g transform="translate(5598 2163)" fill="#fff" stroke="#384e66" stroke-width="8"><circle cx="20" cy="20" r="20" stroke="none"/><circle cx="20" cy="20" r="16" fill="none"/></g><g transform="translate(5548 2134)" fill="#fff" stroke="#384e66" stroke-width="8"><circle cx="20" cy="20" r="20" stroke="none"/><circle cx="20" cy="20" r="16" fill="none"/></g><g transform="translate(5546 2079)" fill="#fff" stroke="#384e66" stroke-width="8"><circle cx="20" cy="20" r="20" stroke="none"/><circle cx="20" cy="20" r="16" fill="none"/></g><g transform="translate(5713 2101)" fill="#fff" stroke="#707070" stroke-width="1"><ellipse cx="1" cy="0.5" rx="1" ry="0.5" stroke="none"/><ellipse cx="1" cy="0.5" rx="0.5" fill="none"/></g><circle cx="7" cy="7" r="7" transform="translate(5599 2100)" fill="#449cd9"/><circle cx="7" cy="7" r="7" transform="translate(5619 2099)" fill="#449cd9"/><circle cx="7" cy="7" r="7" transform="translate(5629 2116)" fill="#449cd9"/><circle cx="7" cy="7" r="7" transform="translate(5620 2133)" fill="#449cd9"/><circle cx="7" cy="7" r="7" transform="translate(5600 2134)" fill="#449cd9"/><circle cx="7" cy="7" r="7" transform="translate(5590 2117)" fill="#449cd9"/><text transform="translate(5618 2268)" fill="#449cd9" stroke="#449cd9" stroke-width="1" font-size="62" font-family="Montserrat-Light, Montserrat" font-weight="300" letter-spacing="0.04em"><tspan x="-149.947" y="0">Algocraft</tspan></text><text transform="translate(5621 2315)" fill="#384e66" stroke="#384e66" stroke-width="1" font-size="38" font-family="Montserrat-Light, Montserrat" font-weight="300" letter-spacing="0.032em"><tspan x="-49.951" y="0">Apps</tspan></text></g></svg>