<svg xmlns="http://www.w3.org/2000/svg" width="304" height="314" viewBox="0 0 304 314">
  <g id="new_logo" data-name="new logo" transform="translate(-5226.912 -1990)">
    <rect id="Rectangle_144" data-name="Rectangle 144" width="302" height="314" transform="translate(5228.912 1990)" fill="#fff"/>
    <g id="logo_trans" data-name="logo trans" transform="translate(5228.344 1990)">
      <g id="Ellipse_24" data-name="Ellipse 24" transform="translate(131.568)" fill="#fff" stroke="#384e66" stroke-width="8">
        <circle cx="20.5" cy="20.5" r="20.5" stroke="none"/>
        <circle cx="20.5" cy="20.5" r="16.5" fill="none"/>
      </g>
      <g id="Ellipse_25" data-name="Ellipse 25" transform="translate(182.568 30)" fill="#fff" stroke="#384e66" stroke-width="8">
        <ellipse cx="20.5" cy="20" rx="20.5" ry="20" stroke="none"/>
        <ellipse cx="20.5" cy="20" rx="16.5" ry="16" fill="none"/>
      </g>
      <g id="Ellipse_26" data-name="Ellipse 26" transform="translate(183.568 86)" fill="#fff" stroke="#384e66" stroke-width="8">
        <circle cx="20.5" cy="20.5" r="20.5" stroke="none"/>
        <circle cx="20.5" cy="20.5" r="16.5" fill="none"/>
      </g>
      <g id="Ellipse_27" data-name="Ellipse 27" transform="translate(132.568 116)" fill="#fff" stroke="#384e66" stroke-width="8">
        <ellipse cx="20.5" cy="21.5" rx="20.5" ry="21.5" stroke="none"/>
        <ellipse cx="20.5" cy="21.5" rx="16.5" ry="17.5" fill="none"/>
      </g>
      <g id="Ellipse_28" data-name="Ellipse 28" transform="translate(81.568 88)" fill="#fff" stroke="#384e66" stroke-width="8">
        <ellipse cx="21" cy="20" rx="21" ry="20" stroke="none"/>
        <ellipse cx="21" cy="20" rx="17" ry="16" fill="none"/>
      </g>
      <g id="Ellipse_29" data-name="Ellipse 29" transform="translate(79.568 31)" fill="#fff" stroke="#384e66" stroke-width="8">
        <ellipse cx="20.5" cy="21" rx="20.5" ry="21" stroke="none"/>
        <ellipse cx="20.5" cy="21" rx="16.5" ry="17" fill="none"/>
      </g>
      <g id="Ellipse_30" data-name="Ellipse 30" transform="translate(251.568 53)" fill="#fff" stroke="#707070" stroke-width="1">
        <circle cx="1" cy="1" r="1" stroke="none"/>
        <circle cx="1" cy="1" r="0.5" fill="none"/>
      </g>
      <circle id="Ellipse_31" data-name="Ellipse 31" cx="7.5" cy="7.5" r="7.5" transform="translate(133.568 52)" fill="#449cd9"/>
      <ellipse id="Ellipse_32" data-name="Ellipse 32" cx="7" cy="7.5" rx="7" ry="7.5" transform="translate(154.568 51)" fill="#449cd9"/>
      <circle id="Ellipse_33" data-name="Ellipse 33" cx="7" cy="7" r="7" transform="translate(165.568 69)" fill="#449cd9"/>
      <circle id="Ellipse_34" data-name="Ellipse 34" cx="7.5" cy="7.5" r="7.5" transform="translate(155.568 86)" fill="#449cd9"/>
      <ellipse id="Ellipse_35" data-name="Ellipse 35" cx="7" cy="6.5" rx="7" ry="6.5" transform="translate(134.568 88)" fill="#449cd9"/>
      <ellipse id="Ellipse_36" data-name="Ellipse 36" cx="6.5" cy="7" rx="6.5" ry="7" transform="translate(125.568 70)" fill="#449cd9"/>
      <text id="Algocraft" transform="translate(149.568 223)" fill="#449cd9" stroke="#449cd9" stroke-width="1" font-size="62" font-family="Montserrat-Light, Montserrat" font-weight="300" letter-spacing="0.04em"><tspan x="-149.947" y="0">Algocraft</tspan></text>
      <text id="Apps" transform="translate(154.568 271)" fill="#384e66" stroke="#384e66" stroke-width="1" font-size="37" font-family="Montserrat-Light, Montserrat" font-weight="300" letter-spacing="0.032em"><tspan x="-48.637" y="0">Apps</tspan></text>
    </g>
  </g>
</svg>
